<mxfile host="Electron" agent="Mozilla/5.0 (Windows NT 10.0; Win64; x64) AppleWebKit/537.36 (KHTML, like Gecko) draw.io/26.2.2 Chrome/134.0.6998.178 Electron/35.1.2 Safari/537.36" version="26.2.2">
  <diagram name="Page-1" id="2YBvvXClWsGukQMizWep">
    <mxGraphModel dx="858" dy="521" grid="1" gridSize="10" guides="1" tooltips="1" connect="1" arrows="1" fold="1" page="1" pageScale="1" pageWidth="850" pageHeight="1100" background="none" math="0" shadow="0">
      <root>
        <mxCell id="0" />
        <mxCell id="1" parent="0" />
        <mxCell id="hS0zpcXdHkR7CHgxD0n5-2" value="" style="html=1;points=[[0,0,0,0,5],[0,1,0,0,-5],[1,0,0,0,5],[1,1,0,0,-5]];perimeter=orthogonalPerimeter;outlineConnect=0;targetShapes=umlLifeline;portConstraint=eastwest;newEdgeStyle={&quot;curved&quot;:0,&quot;rounded&quot;:0};" vertex="1" parent="1">
          <mxGeometry x="20" y="100" width="10" height="410" as="geometry" />
        </mxCell>
        <mxCell id="hS0zpcXdHkR7CHgxD0n5-5" value="view schedule" style="html=1;verticalAlign=bottom;endArrow=block;curved=0;rounded=0;" edge="1" parent="1" target="hS0zpcXdHkR7CHgxD0n5-6">
          <mxGeometry width="80" relative="1" as="geometry">
            <mxPoint x="30" y="100" as="sourcePoint" />
            <mxPoint x="160" y="100" as="targetPoint" />
          </mxGeometry>
        </mxCell>
        <mxCell id="hS0zpcXdHkR7CHgxD0n5-6" value="" style="html=1;points=[[0,0,0,0,5],[0,1,0,0,-5],[1,0,0,0,5],[1,1,0,0,-5]];perimeter=orthogonalPerimeter;outlineConnect=0;targetShapes=umlLifeline;portConstraint=eastwest;newEdgeStyle={&quot;curved&quot;:0,&quot;rounded&quot;:0};" vertex="1" parent="1">
          <mxGeometry x="160" y="100" width="10" height="410" as="geometry" />
        </mxCell>
        <mxCell id="hS0zpcXdHkR7CHgxD0n5-7" value="showSchedule()" style="html=1;verticalAlign=bottom;endArrow=block;curved=0;rounded=0;" edge="1" parent="1" target="hS0zpcXdHkR7CHgxD0n5-8">
          <mxGeometry width="80" relative="1" as="geometry">
            <mxPoint x="170" y="100" as="sourcePoint" />
            <mxPoint x="250" y="100" as="targetPoint" />
          </mxGeometry>
        </mxCell>
        <mxCell id="hS0zpcXdHkR7CHgxD0n5-8" value="" style="html=1;points=[[0,0,0,0,5],[0,1,0,0,-5],[1,0,0,0,5],[1,1,0,0,-5]];perimeter=orthogonalPerimeter;outlineConnect=0;targetShapes=umlLifeline;portConstraint=eastwest;newEdgeStyle={&quot;curved&quot;:0,&quot;rounded&quot;:0};" vertex="1" parent="1">
          <mxGeometry x="420" y="100" width="10" height="350" as="geometry" />
        </mxCell>
        <mxCell id="hS0zpcXdHkR7CHgxD0n5-9" value="createSchedule()" style="html=1;verticalAlign=bottom;endArrow=block;curved=0;rounded=0;" edge="1" parent="1" target="hS0zpcXdHkR7CHgxD0n5-10">
          <mxGeometry width="80" relative="1" as="geometry">
            <mxPoint x="430" y="130" as="sourcePoint" />
            <mxPoint x="560" y="130" as="targetPoint" />
          </mxGeometry>
        </mxCell>
        <mxCell id="hS0zpcXdHkR7CHgxD0n5-10" value="" style="html=1;points=[[0,0,0,0,5],[0,1,0,0,-5],[1,0,0,0,5],[1,1,0,0,-5]];perimeter=orthogonalPerimeter;outlineConnect=0;targetShapes=umlLifeline;portConstraint=eastwest;newEdgeStyle={&quot;curved&quot;:0,&quot;rounded&quot;:0};" vertex="1" parent="1">
          <mxGeometry x="555" y="130" width="10" height="260" as="geometry" />
        </mxCell>
        <mxCell id="hS0zpcXdHkR7CHgxD0n5-11" value="getClientInfo()" style="html=1;verticalAlign=bottom;endArrow=block;curved=0;rounded=0;" edge="1" parent="1" target="hS0zpcXdHkR7CHgxD0n5-12">
          <mxGeometry width="80" relative="1" as="geometry">
            <mxPoint x="560" y="160" as="sourcePoint" />
            <mxPoint x="640" y="160" as="targetPoint" />
          </mxGeometry>
        </mxCell>
        <mxCell id="hS0zpcXdHkR7CHgxD0n5-14" value="manageSchedule UI" style="shape=umlLifeline;perimeter=lifelinePerimeter;whiteSpace=wrap;html=1;container=1;dropTarget=0;collapsible=0;recursiveResize=0;outlineConnect=0;portConstraint=eastwest;newEdgeStyle={&quot;curved&quot;:0,&quot;rounded&quot;:0};" vertex="1" parent="1">
          <mxGeometry x="240" y="20" width="100" height="490" as="geometry" />
        </mxCell>
        <mxCell id="hS0zpcXdHkR7CHgxD0n5-15" value="" style="html=1;points=[[0,0,0,0,5],[0,1,0,0,-5],[1,0,0,0,5],[1,1,0,0,-5]];perimeter=orthogonalPerimeter;outlineConnect=0;targetShapes=umlLifeline;portConstraint=eastwest;newEdgeStyle={&quot;curved&quot;:0,&quot;rounded&quot;:0};" vertex="1" parent="hS0zpcXdHkR7CHgxD0n5-14">
          <mxGeometry x="45" y="330" width="10" height="80" as="geometry" />
        </mxCell>
        <mxCell id="hS0zpcXdHkR7CHgxD0n5-13" value="" style="endArrow=block;dashed=1;endFill=0;endSize=12;html=1;rounded=0;" edge="1" parent="1" source="hS0zpcXdHkR7CHgxD0n5-15" target="hS0zpcXdHkR7CHgxD0n5-2">
          <mxGeometry width="160" relative="1" as="geometry">
            <mxPoint x="279.5" y="390" as="sourcePoint" />
            <mxPoint x="180" y="390" as="targetPoint" />
          </mxGeometry>
        </mxCell>
        <mxCell id="hS0zpcXdHkR7CHgxD0n5-16" value="displaySchedule" style="endArrow=open;endSize=12;dashed=1;html=1;rounded=0;" edge="1" parent="1">
          <mxGeometry width="160" relative="1" as="geometry">
            <mxPoint x="420" y="380" as="sourcePoint" />
            <mxPoint x="290" y="380" as="targetPoint" />
          </mxGeometry>
        </mxCell>
        <mxCell id="hS0zpcXdHkR7CHgxD0n5-17" value="scheduleObject" style="endArrow=open;endSize=12;dashed=1;html=1;rounded=0;" edge="1" parent="1">
          <mxGeometry width="160" relative="1" as="geometry">
            <mxPoint x="555" y="280" as="sourcePoint" />
            <mxPoint x="430" y="280" as="targetPoint" />
          </mxGeometry>
        </mxCell>
        <mxCell id="hS0zpcXdHkR7CHgxD0n5-18" value="clientInfo" style="endArrow=open;endSize=12;dashed=1;html=1;rounded=0;exitX=-0.3;exitY=0.211;exitDx=0;exitDy=0;exitPerimeter=0;" edge="1" parent="1" source="hS0zpcXdHkR7CHgxD0n5-12" target="hS0zpcXdHkR7CHgxD0n5-10">
          <mxGeometry width="160" relative="1" as="geometry">
            <mxPoint x="660" y="200" as="sourcePoint" />
            <mxPoint x="570" y="200" as="targetPoint" />
          </mxGeometry>
        </mxCell>
        <mxCell id="hS0zpcXdHkR7CHgxD0n5-24" value="generate&lt;div&gt;Schedule&lt;/div&gt;" style="html=1;align=left;spacingLeft=2;endArrow=block;rounded=0;edgeStyle=orthogonalEdgeStyle;curved=0;rounded=0;" edge="1" target="hS0zpcXdHkR7CHgxD0n5-10" parent="1">
          <mxGeometry relative="1" as="geometry">
            <mxPoint x="565" y="220" as="sourcePoint" />
            <Array as="points">
              <mxPoint x="595" y="220" />
              <mxPoint x="595" y="250" />
            </Array>
            <mxPoint x="570" y="250" as="targetPoint" />
          </mxGeometry>
        </mxCell>
        <mxCell id="hS0zpcXdHkR7CHgxD0n5-27" value="mainpage" style="shape=umlLifeline;perimeter=lifelinePerimeter;whiteSpace=wrap;html=1;container=1;dropTarget=0;collapsible=0;recursiveResize=0;outlineConnect=0;portConstraint=eastwest;newEdgeStyle={&quot;curved&quot;:0,&quot;rounded&quot;:0};" vertex="1" parent="1">
          <mxGeometry x="110" y="20" width="100" height="550" as="geometry" />
        </mxCell>
        <mxCell id="hS0zpcXdHkR7CHgxD0n5-28" value="manage controller" style="shape=umlLifeline;perimeter=lifelinePerimeter;whiteSpace=wrap;html=1;container=1;dropTarget=0;collapsible=0;recursiveResize=0;outlineConnect=0;portConstraint=eastwest;newEdgeStyle={&quot;curved&quot;:0,&quot;rounded&quot;:0};" vertex="1" parent="1">
          <mxGeometry x="370" y="20" width="100" height="560" as="geometry" />
        </mxCell>
        <mxCell id="hS0zpcXdHkR7CHgxD0n5-29" value="scheduleEntity" style="shape=umlLifeline;perimeter=lifelinePerimeter;whiteSpace=wrap;html=1;container=1;dropTarget=0;collapsible=0;recursiveResize=0;outlineConnect=0;portConstraint=eastwest;newEdgeStyle={&quot;curved&quot;:0,&quot;rounded&quot;:0};size=40;" vertex="1" parent="1">
          <mxGeometry x="510" y="20" width="100" height="460" as="geometry" />
        </mxCell>
        <mxCell id="hS0zpcXdHkR7CHgxD0n5-30" value="" style="shape=umlLifeline;perimeter=lifelinePerimeter;whiteSpace=wrap;html=1;container=1;dropTarget=0;collapsible=0;recursiveResize=0;outlineConnect=0;portConstraint=eastwest;newEdgeStyle={&quot;curved&quot;:0,&quot;rounded&quot;:0};participant=umlActor;" vertex="1" parent="1">
          <mxGeometry x="15" y="20" width="20" height="570" as="geometry" />
        </mxCell>
        <mxCell id="hS0zpcXdHkR7CHgxD0n5-31" value="" style="html=1;rounded=0;" vertex="1" parent="1">
          <mxGeometry x="285" y="60" width="10" height="20" as="geometry" />
        </mxCell>
        <mxCell id="hS0zpcXdHkR7CHgxD0n5-40" value="" style="html=1;rounded=0;" vertex="1" parent="1">
          <mxGeometry x="555" y="60" width="15" height="20" as="geometry" />
        </mxCell>
        <mxCell id="hS0zpcXdHkR7CHgxD0n5-44" value="" style="shape=umlDestroy;whiteSpace=wrap;html=1;strokeWidth=1;targetShapes=umlLifeline;shadow=0;" vertex="1" parent="1">
          <mxGeometry x="275" y="490" width="30" height="30" as="geometry" />
        </mxCell>
        <mxCell id="hS0zpcXdHkR7CHgxD0n5-45" value="" style="shape=umlDestroy;whiteSpace=wrap;html=1;strokeWidth=1;targetShapes=umlLifeline;shadow=0;" vertex="1" parent="1">
          <mxGeometry x="545" y="460" width="30" height="30" as="geometry" />
        </mxCell>
        <mxCell id="hS0zpcXdHkR7CHgxD0n5-48" value="user visitor" style="text;html=1;align=center;verticalAlign=middle;whiteSpace=wrap;rounded=0;strokeWidth=13;" vertex="1" parent="1">
          <mxGeometry y="60" width="60" height="30" as="geometry" />
        </mxCell>
        <mxCell id="hS0zpcXdHkR7CHgxD0n5-12" value="" style="html=1;points=[[0,0,0,0,5],[0,1,0,0,-5],[1,0,0,0,5],[1,1,0,0,-5]];perimeter=orthogonalPerimeter;outlineConnect=0;targetShapes=umlLifeline;portConstraint=eastwest;newEdgeStyle={&quot;curved&quot;:0,&quot;rounded&quot;:0};" vertex="1" parent="1">
          <mxGeometry x="690" y="160" width="10" height="190" as="geometry" />
        </mxCell>
        <mxCell id="hS0zpcXdHkR7CHgxD0n5-49" value="" style="shape=cylinder3;whiteSpace=wrap;html=1;boundedLbl=1;backgroundOutline=1;size=15;" vertex="1" parent="1">
          <mxGeometry x="680" y="20" width="40" height="60" as="geometry" />
        </mxCell>
        <mxCell id="hS0zpcXdHkR7CHgxD0n5-50" value="" style="endArrow=none;dashed=1;html=1;dashPattern=1 3;strokeWidth=2;rounded=0;entryX=0.5;entryY=1;entryDx=0;entryDy=0;entryPerimeter=0;" edge="1" parent="1" target="hS0zpcXdHkR7CHgxD0n5-49">
          <mxGeometry width="50" height="50" relative="1" as="geometry">
            <mxPoint x="700" y="530" as="sourcePoint" />
            <mxPoint x="740" y="110" as="targetPoint" />
          </mxGeometry>
        </mxCell>
        <mxCell id="hS0zpcXdHkR7CHgxD0n5-51" value="DB" style="text;html=1;align=center;verticalAlign=middle;whiteSpace=wrap;rounded=0;" vertex="1" parent="1">
          <mxGeometry x="670" y="50" width="60" height="30" as="geometry" />
        </mxCell>
      </root>
    </mxGraphModel>
  </diagram>
</mxfile>
